<svg xmlns="http://www.w3.org/2000/svg" xmlns:xlink="http://www.w3.org/1999/xlink" width="500" zoomAndPan="magnify" viewBox="0 0 375 374.999991" height="500" preserveAspectRatio="xMidYMid meet" version="1.0"><defs><g/><clipPath id="eaa198454e"><path d="M 86.84375 26.164062 L 290.09375 26.164062 L 290.09375 236.164062 L 86.84375 236.164062 Z M 86.84375 26.164062 " clip-rule="nonzero"/></clipPath><clipPath id="dda62b2e28"><path d="M 164.488281 71 L 280.269531 71 L 280.269531 206.164062 L 164.488281 206.164062 Z M 164.488281 71 " clip-rule="nonzero"/></clipPath><clipPath id="52a64ba614"><path d="M 131.027344 56.234375 L 237 56.234375 L 237 182 L 131.027344 182 Z M 131.027344 56.234375 " clip-rule="nonzero"/></clipPath></defs><rect x="-37.5" width="450" fill="#ffffff" y="-37.499999" height="449.999989" fill-opacity="1"/><rect x="-37.5" width="450" fill="#ffffff" y="-37.499999" height="449.999989" fill-opacity="1"/><g clip-path="url(#eaa198454e)"><path fill="#005f9f" d="M 290.152344 83.945312 C 271.507812 56.128906 239.78125 37.820312 203.777344 37.820312 C 146.382812 37.820312 99.859375 84.34375 99.859375 141.738281 C 99.859375 183.730469 124.769531 219.90625 160.617188 236.292969 C 117.757812 222.046875 86.84375 181.617188 86.84375 133.972656 C 86.84375 74.4375 135.109375 26.175781 194.644531 26.175781 C 236.121094 26.175781 272.128906 49.601562 290.152344 83.945312 Z M 290.152344 83.945312 " fill-opacity="1" fill-rule="nonzero"/></g><path fill="#8bc53f" d="M 263.179688 204.890625 C 246.574219 223.699219 222.285156 235.554688 195.226562 235.554688 C 145.179688 235.554688 104.605469 194.980469 104.605469 144.933594 C 104.605469 115.503906 118.632812 89.351562 140.367188 72.796875 C 126.257812 88.773438 117.695312 109.765625 117.695312 132.753906 C 117.695312 182.804688 158.265625 223.378906 208.316406 223.378906 C 228.9375 223.378906 247.953125 216.492188 263.179688 204.890625 Z M 263.179688 204.890625 " fill-opacity="1" fill-rule="nonzero"/><path fill="#105d91" d="M 174.832031 193.734375 L 174.832031 181.589844 C 185.769531 168.855469 187.195312 155.886719 183.933594 141.988281 C 179.535156 123.199219 163.660156 111.078125 157.410156 106.945312 C 164.109375 109.800781 182.195312 118.933594 189.925781 136.859375 C 197.621094 154.699219 196.472656 172.359375 174.832031 193.734375 " fill-opacity="1" fill-rule="nonzero"/><g clip-path="url(#dda62b2e28)"><path fill="#8bc53f" d="M 249.457031 100.167969 C 240.996094 113.359375 236.464844 128.742188 236.464844 128.742188 C 238.371094 113.816406 244.699219 100.167969 244.699219 100.167969 C 252.132812 81.621094 261.902344 71.101562 261.902344 71.101562 C 261.894531 71.109375 261.882812 71.117188 261.871094 71.121094 C 260.890625 71.785156 241.339844 79.265625 224.121094 140.433594 C 209.136719 193.660156 164.558594 202.730469 164.558594 202.730469 C 164.558594 202.730469 168.84375 202.554688 174.832031 201.230469 L 174.832031 206.164062 L 211.921875 206.164062 C 225.476562 206.164062 236.464844 195.160156 236.464844 181.589844 L 236.464844 161.878906 L 280.269531 161.878906 L 280.269531 124.742188 C 280.269531 111.171875 269.28125 100.167969 255.726562 100.167969 L 249.457031 100.167969 " fill-opacity="1" fill-rule="nonzero"/></g><g clip-path="url(#52a64ba614)"><path fill="#1b75bb" d="M 214.292969 113.503906 C 214.113281 115.011719 213.695312 116.433594 213.070312 117.691406 C 211.839844 120.175781 209.804688 122.039062 207.214844 122.734375 C 201.714844 124.21875 195.78125 119.910156 193.957031 113.113281 C 193.867188 112.777344 193.792969 112.445312 193.722656 112.113281 C 193.203125 109.507812 193.371094 106.953125 194.105469 104.742188 C 194.644531 100.253906 197.277344 96.558594 201.1875 95.507812 C 206.683594 94.023438 212.621094 98.335938 214.445312 105.128906 C 215.234375 108.078125 215.121094 111.011719 214.292969 113.503906 Z M 199.375 56.308594 C 185.820312 56.308594 174.832031 67.3125 174.832031 80.886719 L 174.832031 100.167969 L 131.027344 100.167969 L 131.027344 137.304688 C 131.027344 146.75 136.347656 154.949219 144.152344 159.0625 C 147.566406 160.859375 151.449219 161.878906 155.570312 161.878906 L 174.832031 161.878906 L 174.832031 181.589844 C 185.769531 168.855469 187.195312 155.886719 183.933594 141.984375 C 179.535156 123.199219 163.660156 111.082031 157.410156 106.945312 C 155.804688 106.257812 154.855469 105.933594 154.855469 105.933594 C 155.273438 105.984375 155.691406 106.039062 156.097656 106.101562 C 156.714844 106.183594 157.320312 106.277344 157.917969 106.375 C 174.328125 109.058594 186.570312 116.136719 194.882812 122.804688 C 197.222656 124.679688 199.246094 126.523438 200.96875 128.222656 C 205.035156 132.246094 207.398438 135.492188 208.132812 136.550781 C 208.296875 136.789062 208.378906 136.917969 208.378906 136.917969 C 208.609375 136.363281 208.84375 135.820312 209.078125 135.277344 C 217.417969 115.992188 227.417969 101.925781 236.464844 91.964844 L 236.464844 56.308594 L 199.375 56.308594 " fill-opacity="1" fill-rule="nonzero"/></g><path fill="#105d91" d="M 214.292969 113.503906 C 214.113281 115.011719 213.695312 116.433594 213.070312 117.691406 C 211.839844 120.175781 209.804688 122.039062 207.214844 122.734375 C 201.714844 124.21875 195.78125 119.910156 193.957031 113.113281 C 193.867188 112.777344 193.792969 112.445312 193.722656 112.113281 C 193.203125 109.507812 193.371094 106.953125 194.105469 104.742188 C 193.921875 106.257812 193.980469 107.863281 194.304688 109.492188 C 194.371094 109.824219 194.449219 110.160156 194.539062 110.488281 C 196.363281 117.289062 202.296875 121.597656 207.792969 120.117188 C 210.386719 119.414062 212.421875 117.554688 213.652344 115.070312 C 213.898438 114.570312 214.113281 114.046875 214.292969 113.503906 " fill-opacity="1" fill-rule="nonzero"/><g fill="#005f9f" fill-opacity="1"><g transform="translate(129.830376, 270.443953)"><g><path d="M 19.6875 -11.828125 C 20.988281 -11.367188 22.003906 -10.660156 22.734375 -9.703125 C 23.472656 -8.742188 23.84375 -7.582031 23.84375 -6.21875 C 23.84375 -4.226562 23.039062 -2.691406 21.4375 -1.609375 C 19.84375 -0.535156 17.535156 0 14.515625 0 L 2.265625 0 L 2.265625 -22.671875 L 13.859375 -22.671875 C 16.753906 -22.671875 18.957031 -22.132812 20.46875 -21.0625 C 21.976562 -20 22.734375 -18.5625 22.734375 -16.75 C 22.734375 -15.664062 22.46875 -14.695312 21.9375 -13.84375 C 21.414062 -12.988281 20.664062 -12.316406 19.6875 -11.828125 Z M 8.609375 -18.046875 L 8.609375 -13.671875 L 13.015625 -13.671875 C 15.179688 -13.671875 16.265625 -14.40625 16.265625 -15.875 C 16.265625 -17.320312 15.179688 -18.046875 13.015625 -18.046875 Z M 14 -4.625 C 16.238281 -4.625 17.359375 -5.394531 17.359375 -6.9375 C 17.359375 -8.46875 16.238281 -9.234375 14 -9.234375 L 8.609375 -9.234375 L 8.609375 -4.625 Z M 14 -4.625 "/></g></g></g><g fill="#005f9f" fill-opacity="1"><g transform="translate(154.739391, 270.443953)"><g><path d="M 17.453125 -4.40625 L 7.875 -4.40625 L 6.09375 0 L -0.453125 0 L 9.5625 -22.671875 L 15.875 -22.671875 L 25.90625 0 L 19.234375 0 Z M 15.578125 -9.140625 L 12.671875 -16.390625 L 9.75 -9.140625 Z M 15.578125 -9.140625 "/></g></g></g><g fill="#005f9f" fill-opacity="1"><g transform="translate(180.199067, 270.443953)"><g><path d="M 13.703125 0.453125 C 11.304688 0.453125 9.148438 -0.0507812 7.234375 -1.0625 C 5.328125 -2.082031 3.828125 -3.488281 2.734375 -5.28125 C 1.640625 -7.070312 1.09375 -9.09375 1.09375 -11.34375 C 1.09375 -13.582031 1.640625 -15.597656 2.734375 -17.390625 C 3.828125 -19.179688 5.328125 -20.582031 7.234375 -21.59375 C 9.148438 -22.613281 11.304688 -23.125 13.703125 -23.125 C 16.097656 -23.125 18.25 -22.613281 20.15625 -21.59375 C 22.070312 -20.582031 23.570312 -19.179688 24.65625 -17.390625 C 25.75 -15.597656 26.296875 -13.582031 26.296875 -11.34375 C 26.296875 -9.09375 25.75 -7.070312 24.65625 -5.28125 C 23.570312 -3.488281 22.070312 -2.082031 20.15625 -1.0625 C 18.25 -0.0507812 16.097656 0.453125 13.703125 0.453125 Z M 13.703125 -4.859375 C 14.847656 -4.859375 15.882812 -5.128906 16.8125 -5.671875 C 17.738281 -6.210938 18.472656 -6.972656 19.015625 -7.953125 C 19.554688 -8.929688 19.828125 -10.0625 19.828125 -11.34375 C 19.828125 -12.613281 19.554688 -13.738281 19.015625 -14.71875 C 18.472656 -15.695312 17.738281 -16.457031 16.8125 -17 C 15.882812 -17.539062 14.847656 -17.8125 13.703125 -17.8125 C 12.554688 -17.8125 11.519531 -17.539062 10.59375 -17 C 9.664062 -16.457031 8.929688 -15.695312 8.390625 -14.71875 C 7.847656 -13.738281 7.578125 -12.613281 7.578125 -11.34375 C 7.578125 -10.0625 7.847656 -8.929688 8.390625 -7.953125 C 8.929688 -6.972656 9.664062 -6.210938 10.59375 -5.671875 C 11.519531 -5.128906 12.554688 -4.859375 13.703125 -4.859375 Z M 13.703125 -4.859375 "/></g></g></g><g fill="#005f9f" fill-opacity="1"><g transform="translate(207.602224, 270.443953)"><g/></g></g><g fill="#005f9f" fill-opacity="1"><g transform="translate(217.028132, 270.443953)"><g><path d="M 4.59375 -24.328125 C 5.65625 -24.328125 6.53125 -23.988281 7.21875 -23.3125 C 7.914062 -22.644531 8.265625 -21.773438 8.265625 -20.703125 C 8.265625 -20.203125 8.195312 -19.703125 8.0625 -19.203125 C 7.9375 -18.710938 7.65625 -17.96875 7.21875 -16.96875 L 5.15625 -12.25 L 1.296875 -12.25 L 2.8125 -17.515625 C 2.207031 -17.796875 1.738281 -18.210938 1.40625 -18.765625 C 1.070312 -19.316406 0.90625 -19.960938 0.90625 -20.703125 C 0.90625 -21.773438 1.25 -22.644531 1.9375 -23.3125 C 2.632812 -23.988281 3.519531 -24.328125 4.59375 -24.328125 Z M 4.59375 -24.328125 "/></g></g></g><g fill="#005f9f" fill-opacity="1"><g transform="translate(226.194909, 270.443953)"><g><path d="M 10.234375 0.453125 C 8.398438 0.453125 6.617188 0.226562 4.890625 -0.21875 C 3.160156 -0.675781 1.757812 -1.285156 0.6875 -2.046875 L 2.78125 -6.765625 C 3.800781 -6.097656 4.976562 -5.554688 6.3125 -5.140625 C 7.65625 -4.734375 8.972656 -4.53125 10.265625 -4.53125 C 12.722656 -4.53125 13.953125 -5.144531 13.953125 -6.375 C 13.953125 -7.03125 13.601562 -7.515625 12.90625 -7.828125 C 12.207031 -8.140625 11.078125 -8.46875 9.515625 -8.8125 C 7.816406 -9.175781 6.394531 -9.566406 5.25 -9.984375 C 4.101562 -10.410156 3.117188 -11.085938 2.296875 -12.015625 C 1.472656 -12.941406 1.0625 -14.195312 1.0625 -15.78125 C 1.0625 -17.15625 1.441406 -18.398438 2.203125 -19.515625 C 2.960938 -20.628906 4.09375 -21.507812 5.59375 -22.15625 C 7.09375 -22.800781 8.929688 -23.125 11.109375 -23.125 C 12.597656 -23.125 14.066406 -22.957031 15.515625 -22.625 C 16.960938 -22.289062 18.238281 -21.800781 19.34375 -21.15625 L 17.359375 -16.390625 C 15.203125 -17.554688 13.109375 -18.140625 11.078125 -18.140625 C 9.804688 -18.140625 8.878906 -17.945312 8.296875 -17.5625 C 7.710938 -17.1875 7.421875 -16.695312 7.421875 -16.09375 C 7.421875 -15.488281 7.765625 -15.035156 8.453125 -14.734375 C 9.140625 -14.429688 10.253906 -14.117188 11.796875 -13.796875 C 13.515625 -13.429688 14.941406 -13.035156 16.078125 -12.609375 C 17.210938 -12.191406 18.195312 -11.523438 19.03125 -10.609375 C 19.863281 -9.691406 20.28125 -8.441406 20.28125 -6.859375 C 20.28125 -5.503906 19.898438 -4.273438 19.140625 -3.171875 C 18.390625 -2.066406 17.253906 -1.1875 15.734375 -0.53125 C 14.222656 0.125 12.390625 0.453125 10.234375 0.453125 Z M 10.234375 0.453125 "/></g></g></g><g fill="#005f9f" fill-opacity="1"><g transform="translate(53.709373, 315.752777)"><g><path d="M 22.734375 0 L 22.671875 -12.015625 L 16.84375 -2.234375 L 14 -2.234375 L 8.1875 -11.6875 L 8.1875 0 L 2.265625 0 L 2.265625 -22.671875 L 7.546875 -22.671875 L 15.515625 -9.59375 L 23.28125 -22.671875 L 28.5625 -22.671875 L 28.640625 0 Z M 22.734375 0 "/></g></g></g><g fill="#005f9f" fill-opacity="1"><g transform="translate(84.610812, 315.752777)"><g><path d="M 20.46875 -4.953125 L 20.46875 0 L 2.265625 0 L 2.265625 -22.671875 L 20.046875 -22.671875 L 20.046875 -17.71875 L 8.609375 -17.71875 L 8.609375 -13.890625 L 18.6875 -13.890625 L 18.6875 -9.109375 L 8.609375 -9.109375 L 8.609375 -4.953125 Z M 20.46875 -4.953125 "/></g></g></g><g fill="#005f9f" fill-opacity="1"><g transform="translate(106.377861, 315.752777)"><g><path d="M 2.265625 -22.671875 L 12.984375 -22.671875 C 15.472656 -22.671875 17.675781 -22.207031 19.59375 -21.28125 C 21.519531 -20.351562 23.007812 -19.035156 24.0625 -17.328125 C 25.125 -15.617188 25.65625 -13.625 25.65625 -11.34375 C 25.65625 -9.050781 25.125 -7.050781 24.0625 -5.34375 C 23.007812 -3.632812 21.519531 -2.316406 19.59375 -1.390625 C 17.675781 -0.460938 15.472656 0 12.984375 0 L 2.265625 0 Z M 12.734375 -5.125 C 14.671875 -5.125 16.226562 -5.671875 17.40625 -6.765625 C 18.582031 -7.867188 19.171875 -9.394531 19.171875 -11.34375 C 19.171875 -13.28125 18.582031 -14.800781 17.40625 -15.90625 C 16.226562 -17.007812 14.671875 -17.5625 12.734375 -17.5625 L 8.6875 -17.5625 L 8.6875 -5.125 Z M 12.734375 -5.125 "/></g></g></g><g fill="#005f9f" fill-opacity="1"><g transform="translate(133.133195, 315.752777)"><g><path d="M 2.265625 -22.671875 L 8.6875 -22.671875 L 8.6875 0 L 2.265625 0 Z M 2.265625 -22.671875 "/></g></g></g><g fill="#005f9f" fill-opacity="1"><g transform="translate(144.113892, 315.752777)"><g><path d="M 13.578125 0.453125 C 11.203125 0.453125 9.066406 -0.046875 7.171875 -1.046875 C 5.285156 -2.054688 3.800781 -3.457031 2.71875 -5.25 C 1.632812 -7.039062 1.09375 -9.070312 1.09375 -11.34375 C 1.09375 -13.601562 1.632812 -15.628906 2.71875 -17.421875 C 3.800781 -19.210938 5.285156 -20.609375 7.171875 -21.609375 C 9.066406 -22.617188 11.203125 -23.125 13.578125 -23.125 C 15.648438 -23.125 17.515625 -22.753906 19.171875 -22.015625 C 20.835938 -21.285156 22.222656 -20.226562 23.328125 -18.84375 L 19.234375 -15.15625 C 17.765625 -16.925781 15.984375 -17.8125 13.890625 -17.8125 C 12.660156 -17.8125 11.566406 -17.539062 10.609375 -17 C 9.648438 -16.457031 8.90625 -15.695312 8.375 -14.71875 C 7.84375 -13.738281 7.578125 -12.613281 7.578125 -11.34375 C 7.578125 -10.0625 7.84375 -8.929688 8.375 -7.953125 C 8.90625 -6.972656 9.648438 -6.210938 10.609375 -5.671875 C 11.566406 -5.128906 12.660156 -4.859375 13.890625 -4.859375 C 15.984375 -4.859375 17.765625 -5.742188 19.234375 -7.515625 L 23.328125 -3.828125 C 22.222656 -2.441406 20.835938 -1.378906 19.171875 -0.640625 C 17.515625 0.0859375 15.648438 0.453125 13.578125 0.453125 Z M 13.578125 0.453125 "/></g></g></g><g fill="#005f9f" fill-opacity="1"><g transform="translate(168.018779, 315.752777)"><g><path d="M 17.453125 -4.40625 L 7.875 -4.40625 L 6.09375 0 L -0.453125 0 L 9.5625 -22.671875 L 15.875 -22.671875 L 25.90625 0 L 19.234375 0 Z M 15.578125 -9.140625 L 12.671875 -16.390625 L 9.75 -9.140625 Z M 15.578125 -9.140625 "/></g></g></g><g fill="#005f9f" fill-opacity="1"><g transform="translate(193.478455, 315.752777)"><g><path d="M 2.265625 -22.671875 L 8.6875 -22.671875 L 8.6875 -5.078125 L 19.5 -5.078125 L 19.5 0 L 2.265625 0 Z M 2.265625 -22.671875 "/></g></g></g><g fill="#005f9f" fill-opacity="1"><g transform="translate(213.237237, 315.752777)"><g/></g></g><g fill="#005f9f" fill-opacity="1"><g transform="translate(222.663146, 315.752777)"><g><path d="M 13.578125 0.453125 C 11.203125 0.453125 9.066406 -0.046875 7.171875 -1.046875 C 5.285156 -2.054688 3.800781 -3.457031 2.71875 -5.25 C 1.632812 -7.039062 1.09375 -9.070312 1.09375 -11.34375 C 1.09375 -13.601562 1.632812 -15.628906 2.71875 -17.421875 C 3.800781 -19.210938 5.285156 -20.609375 7.171875 -21.609375 C 9.066406 -22.617188 11.203125 -23.125 13.578125 -23.125 C 15.648438 -23.125 17.515625 -22.753906 19.171875 -22.015625 C 20.835938 -21.285156 22.222656 -20.226562 23.328125 -18.84375 L 19.234375 -15.15625 C 17.765625 -16.925781 15.984375 -17.8125 13.890625 -17.8125 C 12.660156 -17.8125 11.566406 -17.539062 10.609375 -17 C 9.648438 -16.457031 8.90625 -15.695312 8.375 -14.71875 C 7.84375 -13.738281 7.578125 -12.613281 7.578125 -11.34375 C 7.578125 -10.0625 7.84375 -8.929688 8.375 -7.953125 C 8.90625 -6.972656 9.648438 -6.210938 10.609375 -5.671875 C 11.566406 -5.128906 12.660156 -4.859375 13.890625 -4.859375 C 15.984375 -4.859375 17.765625 -5.742188 19.234375 -7.515625 L 23.328125 -3.828125 C 22.222656 -2.441406 20.835938 -1.378906 19.171875 -0.640625 C 17.515625 0.0859375 15.648438 0.453125 13.578125 0.453125 Z M 13.578125 0.453125 "/></g></g></g><g fill="#005f9f" fill-opacity="1"><g transform="translate(246.568033, 315.752777)"><g><path d="M 17.453125 -4.40625 L 7.875 -4.40625 L 6.09375 0 L -0.453125 0 L 9.5625 -22.671875 L 15.875 -22.671875 L 25.90625 0 L 19.234375 0 Z M 15.578125 -9.140625 L 12.671875 -16.390625 L 9.75 -9.140625 Z M 15.578125 -9.140625 "/></g></g></g><g fill="#005f9f" fill-opacity="1"><g transform="translate(272.027698, 315.752777)"><g><path d="M 12.171875 -6.03125 L 8.6875 -6.03125 L 8.6875 0 L 2.265625 0 L 2.265625 -22.671875 L 12.625 -22.671875 C 14.675781 -22.671875 16.457031 -22.328125 17.96875 -21.640625 C 19.488281 -20.960938 20.65625 -19.992188 21.46875 -18.734375 C 22.289062 -17.472656 22.703125 -15.988281 22.703125 -14.28125 C 22.703125 -12.644531 22.316406 -11.210938 21.546875 -9.984375 C 20.785156 -8.765625 19.691406 -7.8125 18.265625 -7.125 L 23.15625 0 L 16.296875 0 Z M 16.234375 -14.28125 C 16.234375 -15.34375 15.894531 -16.164062 15.21875 -16.75 C 14.550781 -17.332031 13.5625 -17.625 12.25 -17.625 L 8.6875 -17.625 L 8.6875 -10.984375 L 12.25 -10.984375 C 13.5625 -10.984375 14.550781 -11.269531 15.21875 -11.84375 C 15.894531 -12.414062 16.234375 -13.226562 16.234375 -14.28125 Z M 16.234375 -14.28125 "/></g></g></g><g fill="#005f9f" fill-opacity="1"><g transform="translate(295.99737, 315.752777)"><g><path d="M 20.46875 -4.953125 L 20.46875 0 L 2.265625 0 L 2.265625 -22.671875 L 20.046875 -22.671875 L 20.046875 -17.71875 L 8.609375 -17.71875 L 8.609375 -13.890625 L 18.6875 -13.890625 L 18.6875 -9.109375 L 8.609375 -9.109375 L 8.609375 -4.953125 Z M 20.46875 -4.953125 "/></g></g></g><g fill="#005f9f" fill-opacity="1"><g transform="translate(317.774868, 315.752777)"><g/></g></g><g fill="#000000" fill-opacity="1"><g transform="translate(99.120631, 335.202315)"><g><path d="M 0.921875 0 L 0.921875 -6.375 L 1.671875 -6.375 L 4.1875 -2.59375 L 6.671875 -6.375 L 7.421875 -6.375 L 7.421875 0 L 6.609375 0 L 6.609375 -4.875 L 4.5 -1.6875 L 3.84375 -1.6875 L 1.734375 -4.875 L 1.734375 0 Z M 0.921875 0 "/></g></g></g><g fill="#000000" fill-opacity="1"><g transform="translate(114.768409, 335.202315)"><g><path d="M 0.921875 0 L 0.921875 -6.375 L 4.796875 -6.375 L 4.796875 -5.625 L 1.734375 -5.625 L 1.734375 -3.609375 L 4.578125 -3.609375 L 4.578125 -2.875 L 1.734375 -2.875 L 1.734375 -0.75 L 4.90625 -0.75 L 4.90625 0 Z M 0.921875 0 "/></g></g></g><g fill="#000000" fill-opacity="1"><g transform="translate(127.562675, 335.202315)"><g><path d="M 0.921875 0 L 0.921875 -6.375 L 3.140625 -6.375 C 3.796875 -6.375 4.363281 -6.238281 4.84375 -5.96875 C 5.332031 -5.695312 5.710938 -5.320312 5.984375 -4.84375 C 6.265625 -4.375 6.40625 -3.820312 6.40625 -3.1875 C 6.40625 -2.5625 6.265625 -2.007812 5.984375 -1.53125 C 5.710938 -1.050781 5.332031 -0.675781 4.84375 -0.40625 C 4.363281 -0.132812 3.796875 0 3.140625 0 Z M 1.734375 -0.765625 L 3.140625 -0.765625 C 3.617188 -0.765625 4.039062 -0.863281 4.40625 -1.0625 C 4.78125 -1.269531 5.066406 -1.554688 5.265625 -1.921875 C 5.472656 -2.285156 5.578125 -2.707031 5.578125 -3.1875 C 5.578125 -3.675781 5.472656 -4.097656 5.265625 -4.453125 C 5.054688 -4.816406 4.765625 -5.097656 4.390625 -5.296875 C 4.023438 -5.503906 3.59375 -5.609375 3.09375 -5.609375 L 1.734375 -5.609375 Z M 1.734375 -0.765625 "/></g></g></g><g fill="#000000" fill-opacity="1"><g transform="translate(141.797372, 335.202315)"><g><path d="M 0.921875 0 L 0.921875 -6.375 L 1.734375 -6.375 L 1.734375 0 Z M 0.921875 0 "/></g></g></g><g fill="#000000" fill-opacity="1"><g transform="translate(151.75636, 335.202315)"><g><path d="M 3.75 0.125 C 3.28125 0.125 2.847656 0.0390625 2.453125 -0.125 C 2.066406 -0.289062 1.726562 -0.519531 1.4375 -0.8125 C 1.144531 -1.101562 0.921875 -1.453125 0.765625 -1.859375 C 0.609375 -2.265625 0.53125 -2.707031 0.53125 -3.1875 C 0.53125 -3.664062 0.609375 -4.109375 0.765625 -4.515625 C 0.921875 -4.921875 1.144531 -5.269531 1.4375 -5.5625 C 1.726562 -5.851562 2.066406 -6.082031 2.453125 -6.25 C 2.847656 -6.414062 3.28125 -6.5 3.75 -6.5 C 4.257812 -6.5 4.722656 -6.40625 5.140625 -6.21875 C 5.566406 -6.03125 5.925781 -5.765625 6.21875 -5.421875 C 6.519531 -5.078125 6.742188 -4.671875 6.890625 -4.203125 L 6.03125 -4.203125 C 5.863281 -4.671875 5.578125 -5.035156 5.171875 -5.296875 C 4.773438 -5.554688 4.3125 -5.6875 3.78125 -5.6875 C 3.300781 -5.6875 2.878906 -5.582031 2.515625 -5.375 C 2.160156 -5.164062 1.875 -4.867188 1.65625 -4.484375 C 1.445312 -4.109375 1.34375 -3.675781 1.34375 -3.1875 C 1.34375 -2.695312 1.445312 -2.265625 1.65625 -1.890625 C 1.875 -1.515625 2.160156 -1.21875 2.515625 -1 C 2.878906 -0.789062 3.300781 -0.6875 3.78125 -0.6875 C 4.320312 -0.6875 4.800781 -0.820312 5.21875 -1.09375 C 5.632812 -1.375 5.925781 -1.753906 6.09375 -2.234375 L 6.9375 -2.234375 C 6.8125 -1.765625 6.59375 -1.351562 6.28125 -1 C 5.976562 -0.644531 5.609375 -0.367188 5.171875 -0.171875 C 4.742188 0.0234375 4.269531 0.125 3.75 0.125 Z M 3.75 0.125 "/></g></g></g><g fill="#000000" fill-opacity="1"><g transform="translate(166.492476, 335.202315)"><g><path d="M 0.15625 0 L 2.78125 -6.375 L 3.53125 -6.375 L 6.15625 0 L 5.296875 0 L 4.703125 -1.453125 L 1.59375 -1.453125 L 1.015625 0 Z M 1.90625 -2.203125 L 4.40625 -2.203125 L 3.15625 -5.25 Z M 1.90625 -2.203125 "/></g></g></g><g fill="#000000" fill-opacity="1"><g transform="translate(180.098125, 335.202315)"><g><path d="M 0.921875 0 L 0.921875 -6.375 L 1.734375 -6.375 L 1.734375 -0.765625 L 4.828125 -0.765625 L 4.828125 0 Z M 0.921875 0 "/></g></g></g><g fill="#000000" fill-opacity="1"><g transform="translate(192.509491, 335.202315)"><g/></g></g><g fill="#000000" fill-opacity="1"><g transform="translate(202.06735, 335.202315)"><g><path d="M 3.75 0.125 C 3.28125 0.125 2.847656 0.0390625 2.453125 -0.125 C 2.066406 -0.289062 1.726562 -0.519531 1.4375 -0.8125 C 1.144531 -1.101562 0.921875 -1.453125 0.765625 -1.859375 C 0.609375 -2.265625 0.53125 -2.707031 0.53125 -3.1875 C 0.53125 -3.664062 0.609375 -4.109375 0.765625 -4.515625 C 0.921875 -4.921875 1.144531 -5.269531 1.4375 -5.5625 C 1.726562 -5.851562 2.066406 -6.082031 2.453125 -6.25 C 2.847656 -6.414062 3.28125 -6.5 3.75 -6.5 C 4.257812 -6.5 4.722656 -6.40625 5.140625 -6.21875 C 5.566406 -6.03125 5.925781 -5.765625 6.21875 -5.421875 C 6.519531 -5.078125 6.742188 -4.671875 6.890625 -4.203125 L 6.03125 -4.203125 C 5.863281 -4.671875 5.578125 -5.035156 5.171875 -5.296875 C 4.773438 -5.554688 4.3125 -5.6875 3.78125 -5.6875 C 3.300781 -5.6875 2.878906 -5.582031 2.515625 -5.375 C 2.160156 -5.164062 1.875 -4.867188 1.65625 -4.484375 C 1.445312 -4.109375 1.34375 -3.675781 1.34375 -3.1875 C 1.34375 -2.695312 1.445312 -2.265625 1.65625 -1.890625 C 1.875 -1.515625 2.160156 -1.21875 2.515625 -1 C 2.878906 -0.789062 3.300781 -0.6875 3.78125 -0.6875 C 4.320312 -0.6875 4.800781 -0.820312 5.21875 -1.09375 C 5.632812 -1.375 5.925781 -1.753906 6.09375 -2.234375 L 6.9375 -2.234375 C 6.8125 -1.765625 6.59375 -1.351562 6.28125 -1 C 5.976562 -0.644531 5.609375 -0.367188 5.171875 -0.171875 C 4.742188 0.0234375 4.269531 0.125 3.75 0.125 Z M 3.75 0.125 "/></g></g></g><g fill="#000000" fill-opacity="1"><g transform="translate(216.80346, 335.202315)"><g><path d="M 0.921875 0 L 0.921875 -6.375 L 4.796875 -6.375 L 4.796875 -5.625 L 1.734375 -5.625 L 1.734375 -3.609375 L 4.578125 -3.609375 L 4.578125 -2.875 L 1.734375 -2.875 L 1.734375 -0.75 L 4.90625 -0.75 L 4.90625 0 Z M 0.921875 0 "/></g></g></g><g fill="#000000" fill-opacity="1"><g transform="translate(229.597722, 335.202315)"><g><path d="M 0.921875 0 L 0.921875 -6.375 L 1.6875 -6.375 L 5.203125 -1.390625 L 5.203125 -6.375 L 6 -6.375 L 6 0 L 5.25 0 L 1.71875 -4.984375 L 1.71875 0 Z M 0.921875 0 "/></g></g></g><g fill="#000000" fill-opacity="1"><g transform="translate(243.8233, 335.202315)"><g><path d="M 2.46875 0 L 2.46875 -5.609375 L 0.3125 -5.609375 L 0.3125 -6.375 L 5.421875 -6.375 L 5.421875 -5.609375 L 3.265625 -5.609375 L 3.265625 0 Z M 2.46875 0 "/></g></g></g><g fill="#000000" fill-opacity="1"><g transform="translate(256.863712, 335.202315)"><g><path d="M 0.921875 0 L 0.921875 -6.375 L 4.796875 -6.375 L 4.796875 -5.625 L 1.734375 -5.625 L 1.734375 -3.609375 L 4.578125 -3.609375 L 4.578125 -2.875 L 1.734375 -2.875 L 1.734375 -0.75 L 4.90625 -0.75 L 4.90625 0 Z M 0.921875 0 "/></g></g></g><g fill="#000000" fill-opacity="1"><g transform="translate(269.657974, 335.202315)"><g><path d="M 0.921875 0 L 0.921875 -6.375 L 3.359375 -6.375 C 3.804688 -6.375 4.191406 -6.289062 4.515625 -6.125 C 4.847656 -5.957031 5.101562 -5.722656 5.28125 -5.421875 C 5.46875 -5.117188 5.5625 -4.753906 5.5625 -4.328125 C 5.5625 -3.804688 5.425781 -3.378906 5.15625 -3.046875 C 4.882812 -2.710938 4.515625 -2.488281 4.046875 -2.375 L 5.65625 0 L 4.6875 0 L 3.140625 -2.28125 L 1.734375 -2.28125 L 1.734375 0 Z M 1.734375 -3.046875 L 3.265625 -3.046875 C 3.734375 -3.046875 4.09375 -3.15625 4.34375 -3.375 C 4.601562 -3.601562 4.734375 -3.921875 4.734375 -4.328125 C 4.734375 -4.734375 4.601562 -5.046875 4.34375 -5.265625 C 4.09375 -5.492188 3.734375 -5.609375 3.265625 -5.609375 L 1.734375 -5.609375 Z M 1.734375 -3.046875 "/></g></g></g></svg>